# xmcd
#
# Track frame offsets:
#	150
#	22200
#	39104
#	60044
#	79586
#	97232
#	115272
#	133958
#	150739
#	169189
#	187749
#	207839
#	225800
#	247700
#
# Disc length: 3534 seconds
#
# Revision: 1
# Processed by: cddbd v1.5.2PL0 Copyright (c) Steve Scherf et al.
# Submitted via: EasyCDDAExtractor 15.1.0.1
#
DISCID=a20dcc0e
DTITLE=PLAYGROUND - APOLLO 0.4
DYEAR=2011
DGENRE=Pop
TTITLE0=แด่ความฝันของมวลมนุษยชาติ Feat. ชัช Bodyslam TO ALL HUMAN DREAM
TTITLE1=ความคิดถึงไม่เคยมีเหตุผล POOKKU POOKKU..... MISS ^^
TTITLE2=ใจหาย Breathless
TTITLE3=ฟองสบู่ BUBBLE
TTITLE4=ขาด Missing
TTITLE5=อย่าถามว่าเหงาไหม(ในวันที่เธอไม่อยู่) Do you feel like me?
TTITLE6=ระยะอันตราย RED ZONE
TTITLE7=วันพรุ้งนี้ NEXT DAY (Song for Tsunami in Japan 2011)
TTITLE8=หนีตามกฤษติกร FOLLOW ME
TTITLE9=ถูกทุกข้อ All above
TTITLE10=หม่น Blue
TTITLE11=คนคิดมาก A worried man
TTITLE12=เรื่องสมมติ Bedtime Story
TTITLE13=ของมีค่า Valuable
EXTD=
EXTT0=
EXTT1=
EXTT2=
EXTT3=
EXTT4=
EXTT5=
EXTT6=
EXTT7=
EXTT8=
EXTT9=
EXTT10=
EXTT11=
EXTT12=
EXTT13=
PLAYORDER=
